<svg width="48" height="48" viewBox="0 0 48 48" fill="none" xmlns="http://www.w3.org/2000/svg">
<g filter="url(#filter0_d)">
<rect x="0.5" y="0.5" width="47" height="47" rx="23.5" stroke="#666666"/>
</g>
<path d="M23.9997 14C21.6752 14.0082 19.4262 14.826 17.6393 16.3128C15.8524 17.7995 14.6392 19.8623 14.2084 22.1466C13.7776 24.4309 14.156 26.7939 15.2786 28.8293C16.4013 30.8648 18.1979 32.4456 20.3597 33.3C20.2597 32.51 20.1897 31.3 20.3897 30.43L21.5597 25.46C21.5597 25.46 21.2597 24.86 21.2597 23.98C21.2597 22.59 22.0697 21.56 23.0797 21.56C23.9297 21.56 24.3497 22.2 24.3497 22.96C24.3497 23.82 23.7997 25.1 23.5097 26.29C23.2697 27.29 24.0097 28.1 24.9997 28.1C26.7797 28.1 28.1397 26.23 28.1397 23.53C28.1397 21.13 26.4197 19.47 23.9597 19.47C23.3753 19.4443 22.7918 19.5373 22.2443 19.7434C21.6968 19.9495 21.1968 20.2644 20.7744 20.669C20.352 21.0737 20.0159 21.5598 19.7865 22.0979C19.5571 22.636 19.4392 23.215 19.4397 23.8C19.4397 24.66 19.7697 25.58 20.1797 26.08C20.2597 26.18 20.2697 26.27 20.2397 26.37L19.9597 27.5C19.9197 27.68 19.8097 27.73 19.6297 27.64C18.3697 27.05 17.5897 25.24 17.5897 23.76C17.5897 20.61 19.8897 17.72 24.2097 17.72C27.6697 17.72 30.3797 20.18 30.3797 23.49C30.3797 26.94 28.1997 29.71 25.1797 29.71C24.1797 29.71 23.2197 29.18 22.8997 28.56L22.2697 30.93C21.9746 31.8577 21.5576 32.7421 21.0297 33.56C22.4036 33.9816 23.8521 34.1021 25.2767 33.9133C26.7013 33.7245 28.0685 33.2309 29.2851 32.4661C30.5018 31.7014 31.5393 30.6833 32.327 29.4814C33.1147 28.2795 33.6341 26.9219 33.8499 25.5011C34.0656 24.0804 33.9726 22.6298 33.5771 21.2482C33.1817 19.8666 32.4931 18.5865 31.5584 17.4951C30.6236 16.4036 29.4645 15.5264 28.1602 14.9233C26.8558 14.3202 25.4368 14.0053 23.9997 14Z" fill="white"/>
<defs>
<filter id="filter0_d" x="0" y="0" width="48" height="48" filterUnits="userSpaceOnUse" color-interpolation-filters="sRGB">
<feFlood flood-opacity="0" result="BackgroundImageFix"/>
<feColorMatrix in="SourceAlpha" type="matrix" values="0 0 0 0 0 0 0 0 0 0 0 0 0 0 0 0 0 0 127 0" result="hardAlpha"/>
<feOffset/>
<feColorMatrix type="matrix" values="0 0 0 0 0.4 0 0 0 0 0.4 0 0 0 0 0.4 0 0 0 1 0"/>
<feBlend mode="normal" in2="BackgroundImageFix" result="effect1_dropShadow"/>
<feBlend mode="normal" in="SourceGraphic" in2="effect1_dropShadow" result="shape"/>
</filter>
</defs>
</svg>
